<svg xmlns="http://www.w3.org/2000/svg" version="1.1" height="144" width="104" viewBox="0 0 104 144" class="diagram" text-anchor="middle" font-family="monospace" font-size="13px" stroke-linecap="round">
<rect class="gray" x="92" y="24" width="8" height="16" fill="currentColor"/>
<rect class="gray" x="92" y="8" width="8" height="16" fill="currentColor"/>
<rect class="gray" x="84" y="8" width="8" height="16" fill="currentColor"/>
<rect class="gray" x="76" y="8" width="8" height="16" fill="currentColor"/>
<rect class="gray" x="68" y="72" width="8" height="16" fill="currentColor"/>
<rect class="gray" x="68" y="56" width="8" height="16" fill="currentColor"/>
<rect class="gray" x="68" y="40" width="8" height="16" fill="currentColor"/>
<rect class="gray" x="68" y="8" width="8" height="16" fill="currentColor"/>
<rect class="gray" x="60" y="56" width="8" height="16" fill="currentColor"/>
<rect class="gray" x="60" y="8" width="8" height="16" fill="currentColor"/>
<rect class="gray" x="52" y="56" width="8" height="16" fill="currentColor"/>
<rect class="gray" x="52" y="8" width="8" height="16" fill="currentColor"/>
<rect class="gray" x="44" y="104" width="8" height="16" fill="currentColor"/>
<rect class="gray" x="44" y="56" width="8" height="16" fill="currentColor"/>
<rect class="gray" x="44" y="8" width="8" height="16" fill="currentColor"/>
<rect class="gray" x="36" y="104" width="8" height="16" fill="currentColor"/>
<rect class="gray" x="36" y="88" width="8" height="16" fill="currentColor"/>
<rect class="gray" x="36" y="72" width="8" height="16" fill="currentColor"/>
<rect class="gray" x="36" y="56" width="8" height="16" fill="currentColor"/>
<rect class="gray" x="36" y="40" width="8" height="16" fill="currentColor"/>
<rect class="gray" x="36" y="24" width="8" height="16" fill="currentColor"/>
<rect class="gray" x="36" y="8" width="8" height="16" fill="currentColor"/>
<rect class="gray" x="28" y="104" width="8" height="16" fill="currentColor"/>
<rect class="gray" x="28" y="88" width="8" height="16" fill="currentColor"/>
<rect class="gray" x="28" y="72" width="8" height="16" fill="currentColor"/>
<rect class="gray" x="28" y="56" width="8" height="16" fill="currentColor"/>
<rect class="gray" x="28" y="40" width="8" height="16" fill="currentColor"/>
<rect class="gray" x="28" y="24" width="8" height="16" fill="currentColor"/>
<rect class="gray" x="28" y="8" width="8" height="16" fill="currentColor"/>
<rect class="gray" x="20" y="104" width="8" height="16" fill="currentColor"/>
<rect class="gray" x="20" y="88" width="8" height="16" fill="currentColor"/>
<rect class="gray" x="20" y="72" width="8" height="16" fill="currentColor"/>
<rect class="gray" x="20" y="56" width="8" height="16" fill="currentColor"/>
<rect class="gray" x="20" y="40" width="8" height="16" fill="currentColor"/>
<rect class="gray" x="20" y="24" width="8" height="16" fill="currentColor"/>
<rect class="gray" x="20" y="8" width="8" height="16" fill="currentColor"/>
<rect class="gray" x="12" y="104" width="8" height="16" fill="currentColor"/>
<rect class="gray" x="12" y="8" width="8" height="16" fill="currentColor"/>
<g class="text">
</g>
</svg>
